<svg xmlns="http://www.w3.org/2000/svg" width="16.875" height="12.263" viewBox="0 0 16.875 12.263">
  <path id="Path_604" data-name="Path 604" d="M17.438,8.775A9.409,9.409,0,0,0,9,2.813,9.409,9.409,0,0,0,.563,8.775v.338A9.287,9.287,0,0,0,9,15.075a9.409,9.409,0,0,0,8.438-5.962ZM5.625,9A3.315,3.315,0,0,1,9,5.625,3.315,3.315,0,0,1,12.375,9,3.315,3.315,0,0,1,9,12.375,3.315,3.315,0,0,1,5.625,9ZM6.75,9A2.25,2.25,0,1,0,9,6.75,2.257,2.257,0,0,0,6.75,9ZM1.688,9A8.526,8.526,0,0,0,9,14.063,8.668,8.668,0,0,0,16.313,9,8.526,8.526,0,0,0,9,3.938,8.39,8.39,0,0,0,1.688,9Z" transform="translate(-0.563 -2.813)" fill-rule="evenodd"/>
</svg>
