<svg xmlns="http://www.w3.org/2000/svg" width="15.75" height="12.347" viewBox="0 0 15.75 12.347">
  <path id="Path_602" data-name="Path 602" d="M16.83,9.343,15.142,5.406a.562.562,0,0,0-.517-.343H12.938V3.938a.562.562,0,0,0-.562-.562H1.688a.563.563,0,0,0-.562.563V13.5a.562.562,0,0,0,.563.563h1.2a2.25,2.25,0,0,0,4.342,0h3.532a2.25,2.25,0,0,0,4.343,0h1.2a.562.562,0,0,0,.563-.562V9.563A.561.561,0,0,0,16.83,9.343ZM12.938,6.188h1.316L15.458,9h-2.52ZM5.063,14.625A1.125,1.125,0,1,1,6.188,13.5,1.125,1.125,0,0,1,5.063,14.625Zm5.7-1.687H7.234a2.25,2.25,0,0,0-4.342,0H2.25V4.5h9.563v7.065A2.25,2.25,0,0,0,10.766,12.938Zm2.171,1.688A1.125,1.125,0,1,1,14.063,13.5,1.125,1.125,0,0,1,12.938,14.625Zm2.813-1.687h-.641a2.25,2.25,0,0,0-2.171-1.687V10.125H15.75Z" transform="translate(-1.125 -3.375)" fill-rule="evenodd"/>
</svg>
