<svg xmlns="http://www.w3.org/2000/svg" width="15.751" height="15.75" viewBox="0 0 15.751 15.75">
  <path id="Path_603" data-name="Path 603" d="M10.417,16.875a1.687,1.687,0,0,1-1.192-.5L1.62,8.781a1.687,1.687,0,0,1-.5-1.192V2.813A1.688,1.688,0,0,1,2.813,1.125H7.588a1.687,1.687,0,0,1,1.193.5l7.6,7.6a1.688,1.688,0,0,1,0,2.391l-4.77,4.77A1.687,1.687,0,0,1,10.417,16.875ZM4.5,6.75A2.25,2.25,0,1,0,6.75,4.5,2.25,2.25,0,0,0,4.5,6.75Zm1.125,0A1.125,1.125,0,1,1,6.75,7.875,1.125,1.125,0,0,1,5.625,6.75ZM2.25,2.813a.563.563,0,0,1,.563-.562H7.588a.562.562,0,0,1,.4.169l7.6,7.6a.562.562,0,0,1,0,.793l-4.776,4.776a.562.562,0,0,1-.793,0l-7.6-7.6a.562.562,0,0,1-.169-.4Z" transform="translate(-1.125 -1.125)" fill-rule="evenodd"/>
</svg>
