<svg id="Group_242" data-name="Group 242" xmlns="http://www.w3.org/2000/svg" width="15.871" height="20.048" viewBox="0 0 15.871 20.048">
  <g id="image_2_" data-name="image (2)">
    <path id="Path_217" data-name="Path 217" d="M76.839,152.673A1.671,1.671,0,1,1,78.509,151,1.672,1.672,0,0,1,76.839,152.673Zm0-2.088a.418.418,0,1,0,.418.418A.418.418,0,0,0,76.839,150.585Zm0,0" transform="translate(-72.244 -143.485)"/>
    <path id="Path_218" data-name="Path 218" d="M1.13,223.837a.627.627,0,0,1-.443-1.07l2.539-2.539a1.466,1.466,0,0,1,2.072,0l1.052,1.053,3.976-3.976a1.466,1.466,0,0,1,2.072,0l3.792,3.792a.627.627,0,1,1-.886.886l-3.792-3.792a.214.214,0,0,0-.3,0l-4.419,4.419a.627.627,0,0,1-.886,0l-1.5-1.5a.214.214,0,0,0-.3,0l-2.539,2.539A.622.622,0,0,1,1.13,223.837Zm0,0" transform="translate(-0.504 -208.383)"/>
    <path id="Path_219" data-name="Path 219" d="M14.074,20.048H2.8a2.3,2.3,0,0,1-2.3-2.3V2.3A2.3,2.3,0,0,1,2.8,0H14.074a2.3,2.3,0,0,1,2.3,2.3V17.751A2.3,2.3,0,0,1,14.074,20.048ZM2.8,1.253A1.046,1.046,0,0,0,1.753,2.3V17.751A1.046,1.046,0,0,0,2.8,18.795H14.074a1.046,1.046,0,0,0,1.044-1.044V2.3a1.046,1.046,0,0,0-1.044-1.044Zm0,0" transform="translate(-0.5)"/>
  </g>
</svg>
