<svg xmlns="http://www.w3.org/2000/svg" width="35.448" height="32.495" viewBox="0 0 35.448 32.495">
  <g id="Group_214" data-name="Group 214" transform="translate(-262 -325)">
    <g id="image_1_" data-name="image (1)" transform="translate(262 325)">
      <path id="Path_209" data-name="Path 209" d="M26.147,190.842a3.348,3.348,0,0,1-.847-.109L2.46,184.616a3.354,3.354,0,0,1-2.351-4.069l2.511-9.629a1.108,1.108,0,0,1,2.143.56l-2.511,9.63a1.128,1.128,0,0,0,.789,1.369l22.828,6.114a1.1,1.1,0,0,0,1.346-.777l.78-3.146a1.108,1.108,0,0,1,2.151.532l-.783,3.161A3.327,3.327,0,0,1,26.147,190.842Zm0,0" transform="translate(0 -158.347)"/>
      <path id="Path_210" data-name="Path 210" d="M111.538,24.125H88.644A3.327,3.327,0,0,1,85.32,20.8V3.816A3.327,3.327,0,0,1,88.644.492h22.894a3.327,3.327,0,0,1,3.323,3.323V20.8A3.327,3.327,0,0,1,111.538,24.125ZM88.644,2.708a1.108,1.108,0,0,0-1.108,1.108V20.8a1.108,1.108,0,0,0,1.108,1.108h22.894a1.108,1.108,0,0,0,1.108-1.108V3.816a1.108,1.108,0,0,0-1.108-1.108Zm0,0" transform="translate(-79.413 -0.492)"/>
      <path id="Path_211" data-name="Path 211" d="M152.274,70.4a2.954,2.954,0,1,1,2.954-2.954A2.957,2.957,0,0,1,152.274,70.4Zm0-3.693a.739.739,0,1,0,.738.739A.739.739,0,0,0,152.274,66.708Zm0,0" transform="translate(-138.982 -60.061)"/>
      <path id="Path_212" data-name="Path 212" d="M86.861,127.787a1.108,1.108,0,0,1-.783-1.892l6.676-6.676a2.592,2.592,0,0,1,3.663,0l1.786,1.786,5.486-6.585a2.584,2.584,0,0,1,1.974-.932,2.375,2.375,0,0,1,1.981.908L115,122.975a1.108,1.108,0,0,1-1.682,1.443l-7.356-8.581a.443.443,0,0,0-.284-.132.371.371,0,0,0-.283.134l-6.263,7.518a1.106,1.106,0,0,1-.8.4,1.086,1.086,0,0,1-.833-.323l-2.644-2.644a.32.32,0,0,0-.53,0l-6.676,6.675A1.1,1.1,0,0,1,86.861,127.787Zm0,0" transform="translate(-79.817 -105.661)"/>
    </g>
  </g>
</svg>
