<svg xmlns="http://www.w3.org/2000/svg" xmlns:xlink="http://www.w3.org/1999/xlink" width="70" height="70" viewBox="0 0 70 70">
  <defs>
    <clipPath id="clip-path">
      <path id="_0381" data-name="0381" d="M35,0A35,35,0,1,1,0,35,35,35,0,0,1,35,0Z" transform="translate(1148 941)" fill="#ede9e1"/>
    </clipPath>
  </defs>
  <g id="Group_314" data-name="Group 314" transform="translate(-1150 -789.449)">
    <path id="_0381-2" data-name="0381" d="M35,0A35,35,0,1,1,0,35,35,35,0,0,1,35,0Z" transform="translate(1150 789.449)" fill="#ede9e1" opacity="0.365"/>
    <g id="Mask_Group_1" data-name="Mask Group 1" transform="translate(2 -151.551)" clip-path="url(#clip-path)">
      <path id="woman" d="M47.612,43.539,38.379,41.23,37.846,39.1a30.57,30.57,0,0,0,9.792-3.066,1.205,1.205,0,0,0,.583-.964,1.222,1.222,0,0,0-.46-1.032c-.043-.029-4.35-3.586-4.35-15.912,0-10.395-2.432-15.666-7.23-15.666h-.723A7.712,7.712,0,0,0,28.951.048C24.422.048,14.49,4.6,14.49,18.124c0,12.325-4.307,15.883-4.338,15.907a1.205,1.205,0,0,0,.1,2,29.989,29.989,0,0,0,9.8,3.075l-.533,2.128-9.231,2.309A13.526,13.526,0,0,0,.029,56.686a1.205,1.205,0,0,0,1.205,1.205H56.667a1.205,1.205,0,0,0,1.205-1.205A13.526,13.526,0,0,0,47.612,43.539Z" transform="translate(1154 953.109)" fill="#ede9e1"/>
    </g>
  </g>
</svg>
