<svg xmlns="http://www.w3.org/2000/svg" width="19.046" height="24" viewBox="0 0 19.046 24">
  <g id="Layer_2" data-name="Layer 2" transform="translate(-4.096 -1)">
    <path id="Path_202" data-name="Path 202" d="M13.443,15.233A3.4,3.4,0,0,1,10.105,12.5a.574.574,0,0,1,1.133-.181,2.267,2.267,0,0,0,4.437,0,.574.574,0,0,1,1.133.181A3.4,3.4,0,0,1,13.443,15.233Z" transform="translate(0.188 -1.541)"/>
    <path id="Path_203" data-name="Path 203" d="M20.739,27.921H6.5a2.314,2.314,0,0,1-1.741-.808A2.733,2.733,0,0,1,4.1,25.188L4.747,10.23a2.5,2.5,0,0,1,2.4-2.49H20.091a2.5,2.5,0,0,1,2.4,2.49l.648,14.958a2.733,2.733,0,0,1-.659,1.925,2.314,2.314,0,0,1-1.741.808ZM7.147,9.484a.836.836,0,0,0-.8.868L5.7,25.274a.911.911,0,0,0,.22.642.771.771,0,0,0,.58.269h14.24a.771.771,0,0,0,.58-.269.911.911,0,0,0,.22-.642l-.648-14.958a.836.836,0,0,0-.8-.868Z" transform="translate(0 -2.921)"/>
    <path id="Path_204" data-name="Path 204" d="M22.355,5.392H20.3V4.4c0-1.252-1.844-2.267-4.118-2.267S12.059,3.148,12.059,4.4v.992H10V4.4C10,2.522,12.766,1,16.178,1s6.178,1.522,6.178,3.4Z" transform="translate(-2.558 0)"/>
  </g>
</svg>
