<svg xmlns="http://www.w3.org/2000/svg" width="25.966" height="25.803" viewBox="0 0 25.966 25.803">
  <g id="Group_268" data-name="Group 268" transform="translate(-6115 -1797.751)">
    <path id="heart_off_rgb_black" d="M13.955,10.612a2.448,2.448,0,0,1,1.733,4.177L11.507,18.93,7.329,14.791a2.448,2.448,0,1,1,3.447-3.476l.269.31.462.533.462-.533.269-.31a2.431,2.431,0,0,1,1.716-.7m0-.612a3.05,3.05,0,0,0-2.164.9l-.284.328-.284-.328A3.06,3.06,0,1,0,6.9,15.223l4.611,4.568,4.611-4.568A3.06,3.06,0,0,0,13.955,10Z" transform="translate(6116.343 1795.849)" stroke="#000" stroke-width="1"/>
    <g id="recycle_2_" data-name="recycle (2)" transform="translate(6115 1797.751)">
      <path id="Path_222" data-name="Path 222" d="M12.9,1.38a11.51,11.51,0,0,1,5.91,1.675,12.794,12.794,0,0,1,3.083,2.6l-3.05-.1a.649.649,0,0,0-.043,1.3l4.22.139a.649.649,0,0,0,.847-.848L23.73,1.919a.649.649,0,0,0-1.3.029s0,.009,0,.014l.08,2.434a14.16,14.16,0,0,0-3.033-2.455A12.811,12.811,0,0,0,12.9.082,12.555,12.555,0,0,0,3.465,4.3,13.4,13.4,0,0,0,0,12.983a.649.649,0,0,0,1.3,0A12.069,12.069,0,0,1,4.43,5.171,11.272,11.272,0,0,1,12.9,1.38Zm0,0" transform="translate(0 -0.082)"/>
      <path id="Path_223" data-name="Path 223" d="M62.706,236.012a.649.649,0,0,0-.649.649,12.07,12.07,0,0,1-3.132,7.812,11.272,11.272,0,0,1-8.471,3.79,11.509,11.509,0,0,1-5.91-1.675,12.8,12.8,0,0,1-3.083-2.6l3.05.1a.649.649,0,0,0,.043-1.3l-4.22-.139a.649.649,0,0,0-.847.848l.139,4.219a.649.649,0,0,0,1.3-.029s0-.009,0-.014l-.08-2.434a14.167,14.167,0,0,0,3.033,2.455,12.809,12.809,0,0,0,6.578,1.86,12.555,12.555,0,0,0,9.436-4.22,13.4,13.4,0,0,0,3.465-8.681A.649.649,0,0,0,62.706,236.012Zm0,0" transform="translate(-37.389 -223.759)"/>
    </g>
  </g>
</svg>
