<svg xmlns="http://www.w3.org/2000/svg" width="13.491" height="17" viewBox="0 0 13.491 17">
  <g id="Layer_2" data-name="Layer 2" transform="translate(-4.096 -1)">
    <path id="Path_202" data-name="Path 202" d="M13.443,15.233A3.4,3.4,0,0,1,10.105,12.5a.574.574,0,0,1,1.133-.181,2.267,2.267,0,0,0,4.437,0,.574.574,0,0,1,1.133.181A3.4,3.4,0,0,1,13.443,15.233Z" transform="translate(-2.601 -4.702)"/>
    <path id="Path_203" data-name="Path 203" d="M15.885,20.921H5.8a1.7,1.7,0,0,1-1.7-1.785l.459-9.769a1.7,1.7,0,0,1,1.7-1.626h9.169a1.7,1.7,0,0,1,1.7,1.626l.459,9.769a1.7,1.7,0,0,1-1.7,1.785ZM6.257,8.879a.567.567,0,0,0-.567.567l-.459,9.747a.567.567,0,0,0,.567.595H15.885a.567.567,0,0,0,.567-.595l-.459-9.769a.567.567,0,0,0-.567-.567Z" transform="translate(0 -2.921)"/>
    <path id="Path_204" data-name="Path 204" d="M16.8,5.392H15.667V4.4a2.267,2.267,0,1,0-4.533,0v.992H10V4.4a3.4,3.4,0,0,1,6.8,0Z" transform="translate(-2.558 0)"/>
  </g>
</svg>
