<svg xmlns="http://www.w3.org/2000/svg" width="24.014" height="23.863" viewBox="0 0 24.014 23.863">
  <g id="Group_336" data-name="Group 336" transform="translate(-17609 -3150)">
    <g id="Layer_2" data-name="Layer 2" transform="translate(17611.904 3154.752)">
      <path id="Path_202" data-name="Path 202" d="M11.714,13.485a1.643,1.643,0,0,1-1.613-1.32.277.277,0,0,1,.548-.088,1.1,1.1,0,0,0,2.144,0,.277.277,0,0,1,.548.088A1.643,1.643,0,0,1,11.714,13.485Z" transform="translate(-3.011 -6.352)" stroke="#000" stroke-width="0.2"/>
      <path id="Path_203" data-name="Path 203" d="M12.138,17.491H5.257a1.118,1.118,0,0,1-.841-.39,1.32,1.32,0,0,1-.318-.93l.313-7.227a1.206,1.206,0,0,1,1.16-1.2h6.254a1.206,1.206,0,0,1,1.16,1.2L13.3,16.17a1.32,1.32,0,0,1-.318.93,1.118,1.118,0,0,1-.841.39ZM5.57,8.583A.4.4,0,0,0,5.184,9l-.313,7.21a.44.44,0,0,0,.106.31.373.373,0,0,0,.28.13h6.88a.373.373,0,0,0,.28-.13.44.44,0,0,0,.106-.31l-.313-7.227a.4.4,0,0,0-.387-.419Z" transform="translate(0 -4.895)" stroke="#000" stroke-width="0.2"/>
      <path id="Path_204" data-name="Path 204" d="M15.97,3.122h-.995V2.643c0-.6-.891-1.1-1.99-1.1s-1.99.49-1.99,1.1v.479H10V2.643C10,1.736,11.336,1,12.985,1s2.985.736,2.985,1.643Z" transform="translate(-4.287 0)" stroke="#000" stroke-width="0.2"/>
    </g>
    <g id="recycle" transform="translate(17609 3149.918)">
      <path id="Path_231" data-name="Path 231" d="M11.932,1.283A10.645,10.645,0,0,1,17.4,2.832a11.832,11.832,0,0,1,2.851,2.4l-2.821-.093a.6.6,0,1,0-.039,1.2l3.9.129a.6.6,0,0,0,.783-.785l-.129-3.9a.6.6,0,0,0-1.2.027s0,.009,0,.013l.074,2.251a13.1,13.1,0,0,0-2.8-2.27A11.848,11.848,0,0,0,11.932.082,11.611,11.611,0,0,0,3.2,3.985,12.394,12.394,0,0,0,0,12.014a.6.6,0,1,0,1.2,0A11.162,11.162,0,0,1,4.1,4.789,10.425,10.425,0,0,1,11.932,1.283Zm0,0"/>
      <path id="Path_232" data-name="Path 232" d="M60.957,236.012a.6.6,0,0,0-.6.6,11.163,11.163,0,0,1-2.9,7.225,10.425,10.425,0,0,1-7.834,3.505,10.644,10.644,0,0,1-5.466-1.549,11.841,11.841,0,0,1-2.851-2.4l2.821.093a.6.6,0,0,0,.039-1.2l-3.9-.129a.6.6,0,0,0-.783.784l.129,3.9a.6.6,0,1,0,1.2-.027s0-.008,0-.013l-.074-2.251a13.1,13.1,0,0,0,2.8,2.27,11.846,11.846,0,0,0,6.083,1.72,11.611,11.611,0,0,0,8.727-3.9,12.4,12.4,0,0,0,3.2-8.029A.6.6,0,0,0,60.957,236.012Zm0,0" transform="translate(-37.543 -224.598)"/>
    </g>
  </g>
</svg>
