<svg xmlns="http://www.w3.org/2000/svg" width="18.048" height="23.177" viewBox="0 0 18.048 23.177">
  <g id="security_1_" data-name="security (1)" transform="translate(-0.055 0)">
    <path id="Path_228" data-name="Path 228" d="M17.873,4.693,9.162.051a.433.433,0,0,0-.412,0L.28,4.695a.434.434,0,0,0-.225.38v6.063a12.554,12.554,0,0,0,7.525,11.49l1.176.512a.433.433,0,0,0,.345,0l1.325-.572A12.529,12.529,0,0,0,18.1,11.018V5.075A.434.434,0,0,0,17.873,4.693Zm-.638,6.326a11.664,11.664,0,0,1-7.15,10.753h0l-1.154.5-1-.437a11.686,11.686,0,0,1-7-10.695V5.332L8.961.926l8.274,4.409Zm0,0" transform="translate(0 0)"/>
    <path id="Path_229" data-name="Path 229" d="M80.605,147.849a.434.434,0,0,0-.66.563l2.291,2.683a.434.434,0,0,0,.6.055l5.335-4.341a.434.434,0,1,0-.547-.673l-5.007,4.073Zm0,0" transform="translate(-74.844 -136.992)"/>
  </g>
</svg>
