<svg xmlns="http://www.w3.org/2000/svg" width="11.25" height="15.75" viewBox="0 0 11.25 15.75">
  <path id="Path_601" data-name="Path 601" d="M6.75,2.25A2.813,2.813,0,1,1,3.938,5.063,2.813,2.813,0,0,1,6.75,2.25Zm0-1.125a3.938,3.938,0,1,0,3.938,3.938A3.938,3.938,0,0,0,6.75,1.125Zm5.625,15.75H11.25V14.063A2.813,2.813,0,0,0,8.438,11.25H5.063A2.813,2.813,0,0,0,2.25,14.063v2.813H1.125V14.063a3.938,3.938,0,0,1,3.938-3.937H8.438a3.938,3.938,0,0,1,3.938,3.938Z" transform="translate(-1.125 -1.125)" fill-rule="evenodd"/>
</svg>
