<svg xmlns="http://www.w3.org/2000/svg" width="17.436" height="17" viewBox="0 0 17.436 17">
  <path id="visibility_off_rgb_black" d="M11.286,15.894l4.608-4.608a3.481,3.481,0,0,1-4.608,4.608Zm7.3-7.3-2.037,2.037a4.357,4.357,0,0,1-5.911,5.911L8.977,18.2a8.827,8.827,0,0,0,3.741.836,9.411,9.411,0,0,0,8.718-6.321A10.08,10.08,0,0,0,18.582,8.6ZM21,5.308,5.308,21,4,19.692l2.854-2.854A10.08,10.08,0,0,1,4,12.718,9.411,9.411,0,0,1,12.718,6.4a8.827,8.827,0,0,1,3.741.836L19.692,4ZM14.8,8.891A4.357,4.357,0,0,0,8.891,14.8l.651-.651A3.481,3.481,0,0,1,14.15,9.542Z" transform="translate(-4 -4)"/>
</svg>
