<svg xmlns="http://www.w3.org/2000/svg" width="29.823" height="24" viewBox="0 0 29.823 24">
  <path id="wechat_rgb_black" d="M24.841,16.225c-4.961,0-8.983,3.336-8.983,7.45s4.022,7.45,8.983,7.45a10.681,10.681,0,0,0,2.932-.409.9.9,0,0,1,.264-.039.949.949,0,0,1,.477.137l1.967,1.13a.341.341,0,0,0,.173.056.3.3,0,0,0,.3-.3.886.886,0,0,0-.048-.218c-.012-.042-.253-.942-.405-1.5a.722.722,0,0,1-.031-.19.593.593,0,0,1,.251-.485,7.006,7.006,0,0,0,3.1-5.631C33.823,19.561,29.8,16.225,24.841,16.225Zm-2.995,6.258a1.192,1.192,0,1,1,1.2-1.192,1.192,1.192,0,0,1-1.2,1.192Zm5.989,0a1.192,1.192,0,1,1,1.2-1.192,1.192,1.192,0,0,1-1.2,1.192Zm-2.994-6.961c.2,0,.392.006.586.015C24.614,11.266,20.157,8,14.779,8,8.826,8,4,12,4,16.94A8.4,8.4,0,0,0,7.725,23.7a.713.713,0,0,1,.3.583.835.835,0,0,1-.038.228c-.182.673-.472,1.752-.485,1.8a1.04,1.04,0,0,0-.058.261.358.358,0,0,0,.36.357.4.4,0,0,0,.207-.067l2.36-1.356a1.135,1.135,0,0,1,.573-.165,1.077,1.077,0,0,1,.316.047,12.819,12.819,0,0,0,3.519.49c.2,0,.4-.005.592-.014a6.865,6.865,0,0,1-.362-2.191C15.01,19.172,19.411,15.522,24.841,15.522Zm-6.468-2.873a1.43,1.43,0,1,1-1.437,1.43,1.43,1.43,0,0,1,1.437-1.43ZM11.186,15.51a1.43,1.43,0,1,1,1.437-1.43,1.43,1.43,0,0,1-1.437,1.43Z" transform="translate(-4 -8)"/>
</svg>
