<svg xmlns="http://www.w3.org/2000/svg" width="30.823" height="25" viewBox="0 0 30.823 25">
  <path id="wechat_rgb_black" d="M24.841,16.225A9.016,9.016,0,0,0,17.3,19.254a7.168,7.168,0,0,0-1.441,4.42c0,4.114,4.022,7.45,8.983,7.45a10.681,10.681,0,0,0,2.932-.409.9.9,0,0,1,.264-.039.949.949,0,0,1,.477.137l1.967,1.13a.341.341,0,0,0,.173.056.3.3,0,0,0,.3-.3.886.886,0,0,0-.048-.218c-.012-.042-.253-.942-.405-1.5a.722.722,0,0,1-.031-.19.593.593,0,0,1,.251-.485,7.006,7.006,0,0,0,3.1-5.631C33.823,19.561,29.678,16.527,24.841,16.225Zm-2.995,6.258a1.192,1.192,0,1,1,1.2-1.192,1.192,1.192,0,0,1-1.2,1.192Zm5.989,0a1.192,1.192,0,1,1,1.2-1.192,1.192,1.192,0,0,1-1.2,1.192Zm-2.994-6.258c.2,0,.771-.009.965,0C24.994,11.954,20.157,8,14.779,8,8.826,8,4,12,4,16.94A8.4,8.4,0,0,0,7.725,23.7a.713.713,0,0,1,.3.583.835.835,0,0,1-.038.228c-.182.673-.472,1.752-.485,1.8a1.04,1.04,0,0,0-.058.261.358.358,0,0,0,.36.357.4.4,0,0,0,.207-.067l2.36-1.356a1.135,1.135,0,0,1,.573-.165,1.077,1.077,0,0,1,.316.047,12.808,12.808,0,0,0,3.519.476c.2,0,1.262.009,1.457,0a6.749,6.749,0,0,1-.379-2.169C15.858,19.195,19.411,16.225,24.841,16.225Zm-6.468-3.576a1.43,1.43,0,1,1-1.437,1.43,1.43,1.43,0,0,1,1.437-1.43ZM11.186,15.51a1.43,1.43,0,1,1,1.437-1.43,1.43,1.43,0,0,1-1.437,1.43Z" transform="translate(-3.5 -7.5)" fill="none" stroke="#000" stroke-width="1"/>
</svg>
