<svg xmlns="http://www.w3.org/2000/svg" width="19.5" height="19.5" viewBox="0 0 19.5 19.5">
  <g id="Group_621" data-name="Group 621" transform="translate(-14.25 -476.25)">
    <path id="Path_190" data-name="Path 190" d="M1271.3,170.159l-3.59,2.141.62-3.676A6.157,6.157,0,0,1,1266,163.8c0-3.756,3.3-6.8,8.55-6.8s8.55,3.044,8.55,6.8-3.3,6.8-8.55,6.8A11.531,11.531,0,0,1,1271.3,170.159Z" transform="translate(-1251 320)" fill="none" stroke="#000" stroke-linecap="round" stroke-linejoin="round" stroke-width="1.5" fill-rule="evenodd"/>
    <path id="Path_191" data-name="Path 191" d="M1282.7,166a4.44,4.44,0,0,1-.2,6.466l.4,2.534-2.31-1.476a7.041,7.041,0,0,1-2.1.3c-2.75,0-4.67-1.4-5.29-3.316h0" transform="translate(-1251 320)" fill="none" stroke="#000" stroke-linecap="round" stroke-linejoin="round" stroke-width="1.5"/>
  </g>
</svg>
