<svg xmlns="http://www.w3.org/2000/svg" width="17.292" height="17" viewBox="0 0 17.292 17">
  <path id="globe_rgb_black" d="M16.108,9.07a15.44,15.44,0,0,1,.482,3.383H13.13V9.409a16.215,16.215,0,0,0,2.978-.339Zm1.344,3.383h3.89a8.611,8.611,0,0,0-1.723-4.767,9.513,9.513,0,0,1-2.653,1.169A15.96,15.96,0,0,1,17.452,12.454ZM9.285,9.07A15.44,15.44,0,0,0,8.8,12.454h3.46V9.409A16.216,16.216,0,0,1,9.285,9.07Zm.244-.831a15.374,15.374,0,0,0,2.734.3V4.706C11.1,4.99,10.139,6.4,9.529,8.24Zm6.335,0C15.254,6.4,14.3,4.99,13.13,4.706V8.542a15.374,15.374,0,0,0,2.734-.3Zm.858-.214a8.773,8.773,0,0,0,2.339-1.008,8.643,8.643,0,0,0-4.673-2.631A7.3,7.3,0,0,1,16.722,8.026Zm-4.459,8.339V13.32H8.8A15.44,15.44,0,0,0,9.285,16.7a16.215,16.215,0,0,1,2.978-.339ZM9.529,17.534c.61,1.835,1.566,3.25,2.734,3.534V17.232a15.374,15.374,0,0,0-2.734.3ZM7.941,13.32H4.05a8.611,8.611,0,0,0,1.723,4.767,9.513,9.513,0,0,1,2.653-1.169,15.96,15.96,0,0,1-.487-3.6Zm6.448,8.067a8.643,8.643,0,0,0,4.673-2.631,8.773,8.773,0,0,0-2.339-1.008A7.294,7.294,0,0,1,14.389,21.387Zm1.475-3.853a15.374,15.374,0,0,0-2.734-.3v3.837c1.168-.284,2.124-1.7,2.734-3.534Zm1.1-.615a9.513,9.513,0,0,1,2.653,1.169,8.611,8.611,0,0,0,1.724-4.767h-3.89a15.961,15.961,0,0,1-.487,3.6Zm-8.295.829a8.773,8.773,0,0,0-2.339,1.008A8.643,8.643,0,0,0,11,21.387,7.3,7.3,0,0,1,8.671,17.748ZM11,4.387A8.643,8.643,0,0,0,6.331,7.018,8.773,8.773,0,0,0,8.671,8.026,7.294,7.294,0,0,1,11,4.387ZM8.427,8.855A9.513,9.513,0,0,1,5.774,7.686,8.611,8.611,0,0,0,4.05,12.454h3.89a15.96,15.96,0,0,1,.487-3.6ZM16.108,16.7a15.44,15.44,0,0,0,.482-3.384H13.13v3.045a16.215,16.215,0,0,1,2.978.339Z" transform="translate(-4.05 -4.387)" fill="#767676"/>
</svg>
