<svg xmlns="http://www.w3.org/2000/svg" width="20.16" height="17.268" viewBox="0 0 20.16 17.268">
  <path id="Path_300" data-name="Path 300" d="M21.271,7.057,19.832,2.74a.719.719,0,0,0-.719-.489H3.285a.719.719,0,0,0-.719.489L1.127,7.057a.856.856,0,0,0,0,.23V11.6a.719.719,0,0,0,.719.719h.719v7.194H4V12.323H8.321v7.194H19.832V12.323h.719a.719.719,0,0,0,.719-.719V7.287A.857.857,0,0,0,21.271,7.057ZM18.394,18.079H9.76V12.323h8.633Zm1.439-7.194H16.955V8.007H15.516v2.878h-3.6V8.007H10.48v2.878h-3.6V8.007H5.444v2.878H2.566V7.4L3.8,3.69H18.6L19.832,7.4Z" transform="translate(-1.119 -2.25)" fill-rule="evenodd"/>
</svg>
