<svg xmlns="http://www.w3.org/2000/svg" width="15.311" height="15.311" viewBox="0 0 15.311 15.311">
  <path id="download_1_" data-name="download (1)" d="M7.605,1.373c2.032,0,2.27.006,3.072.042a4.348,4.348,0,0,1,1.414.261,2.323,2.323,0,0,1,.873.57,2.323,2.323,0,0,1,.57.873A4.348,4.348,0,0,1,13.8,4.534c.036.8.042,1.04.042,3.072s-.006,2.27-.042,3.072a4.348,4.348,0,0,1-.261,1.414,2.539,2.539,0,0,1-1.444,1.444,4.348,4.348,0,0,1-1.414.261c-.8.036-1.04.042-3.072.042s-2.27-.006-3.072-.042a4.348,4.348,0,0,1-1.414-.261,2.323,2.323,0,0,1-.873-.57,2.323,2.323,0,0,1-.57-.873,4.348,4.348,0,0,1-.261-1.414c-.036-.8-.042-1.04-.042-3.072s.006-2.27.042-3.072a4.348,4.348,0,0,1,.261-1.414,2.323,2.323,0,0,1,.57-.873,2.323,2.323,0,0,1,.873-.57,4.348,4.348,0,0,1,1.414-.261c.8-.036,1.04-.042,3.072-.042M7.605,0C5.538,0,5.282.006,4.468.048A5.623,5.623,0,0,0,2.626.4a3.726,3.726,0,0,0-1.349.879A3.726,3.726,0,0,0,.4,2.626,5.623,5.623,0,0,0,.048,4.468C.006,5.282,0,5.538,0,7.605s.006,2.323.048,3.137A5.623,5.623,0,0,0,.4,12.585a3.726,3.726,0,0,0,.879,1.349,3.726,3.726,0,0,0,1.349.879,5.623,5.623,0,0,0,1.842.351c.814.042,1.07.048,3.137.048s2.323-.006,3.137-.048a5.623,5.623,0,0,0,1.842-.351,3.905,3.905,0,0,0,2.228-2.228,5.623,5.623,0,0,0,.351-1.842c.042-.814.048-1.07.048-3.137s-.006-2.323-.048-3.137a5.623,5.623,0,0,0-.351-1.842,3.726,3.726,0,0,0-.879-1.349A3.726,3.726,0,0,0,12.585.4,5.623,5.623,0,0,0,10.743.048C9.929.006,9.673,0,7.605,0Zm0,3.7a3.9,3.9,0,1,0,3.9,3.9A3.9,3.9,0,0,0,7.605,3.7Zm0,6.441a2.537,2.537,0,1,1,2.537-2.537A2.536,2.536,0,0,1,7.605,10.143Zm4.973-6.6a.912.912,0,1,1-.915-.915A.91.91,0,0,1,12.579,3.547Z" transform="translate(0.05 0.05)" fill="#0a0a08" stroke="#000" stroke-width="0.1"/>
</svg>
