<svg xmlns="http://www.w3.org/2000/svg" width="60" height="60" viewBox="0 0 60 60">
  <g id="Group_341" data-name="Group 341" transform="translate(-1253.5 -483.12)">
    <circle id="Ellipse_4" data-name="Ellipse 4" cx="29.5" cy="29.5" r="29.5" transform="translate(1254 483.62)" fill="none" stroke="#000" stroke-width="1"/>
    <path id="Path_236" data-name="Path 236" d="M116,28.625a1.125,1.125,0,1,0,1.125-1.125A1.125,1.125,0,0,0,116,28.625ZM108.288,31.6a.571.571,0,0,0,0,.8l5.063,5.063a.562.562,0,0,0,.8,0l6.019-6.024a1.125,1.125,0,0,0,.332-.793V26.375a1.125,1.125,0,0,0-1.125-1.125h-4.269a1.129,1.129,0,0,0-.794.332Zm6.818-5.226h4.269v4.269l-5.625,5.625L109.481,32Zm2.418,12.212,6.019-6.024a1.125,1.125,0,0,0,.332-.793V27.5a1.125,1.125,0,0,0-1.125-1.125h-1.125V27.5h1.125v4.269l-5.625,5.625-.726-.731-.8.8,1.125,1.125a.562.562,0,0,0,.8,0Z" transform="translate(1167.5 483.12)" fill-rule="evenodd"/>
  </g>
</svg>
