<svg xmlns="http://www.w3.org/2000/svg" width="13.179" height="15" viewBox="0 0 13.179 15">
  <g id="tik-tok" transform="translate(-31.423 -0.39)">
    <path id="Path_87" data-name="Path 87" d="M44.594,4.146a3.779,3.779,0,0,1-2.284-.763A3.78,3.78,0,0,1,40.8.39H38.352V7.082l0,3.666a2.22,2.22,0,1,1-1.523-2.1V6.158a4.82,4.82,0,0,0-.706-.052,4.7,4.7,0,0,0-3.529,1.578A4.6,4.6,0,0,0,32.8,14.03a4.778,4.778,0,0,0,.442.386,4.7,4.7,0,0,0,2.879.973,4.819,4.819,0,0,0,.706-.052,4.681,4.681,0,0,0,2.615-1.308,4.585,4.585,0,0,0,1.376-3.263L40.8,5.293a6.206,6.206,0,0,0,3.8,1.29V4.145h-.007Z" transform="translate(0)"/>
  </g>
</svg>
