<svg xmlns="http://www.w3.org/2000/svg" width="21.446" height="21.446" viewBox="0 0 21.446 21.446">
  <path id="Path_302" data-name="Path 302" d="M1.125,11.848A10.657,10.657,0,0,1,11.848,1.125,10.657,10.657,0,0,1,22.571,11.848,10.657,10.657,0,0,1,11.848,22.571,10.657,10.657,0,0,1,1.125,11.848ZM11.848,4.189a3.83,3.83,0,1,0,3.83,3.83A3.792,3.792,0,0,0,11.848,4.189Zm0,6.127a2.356,2.356,0,0,1-2.3-2.3,2.3,2.3,0,1,1,4.6,0A2.356,2.356,0,0,1,11.848,10.316Zm-4.6,9.5v-2.3a2.525,2.525,0,0,1,2.3-2.6h4.6a2.525,2.525,0,0,1,2.3,2.6v2.3A8.988,8.988,0,0,1,7.252,19.814ZM17.975,16.75v1.991c.109-.109.217-.2.319-.282a1.551,1.551,0,0,0,.447-.484,9.223,9.223,0,1,0-13.021.766V17.516A4.168,4.168,0,0,1,9.55,13.38h4.6C16.29,13.533,17.975,15.371,17.975,16.75Z" transform="translate(-1.125 -1.125)" fill-rule="evenodd"/>
</svg>
