<svg xmlns="http://www.w3.org/2000/svg" width="13.991" height="15.578" viewBox="0 0 13.991 15.578">
  <g id="Group_981" data-name="Group 981" transform="translate(-342.43 -1039.366)">
    <path id="Path_481" data-name="Path 481" d="M157,749v1.406a2.848,2.848,0,0,0,1.38,2.387l9.931,6.309a2.848,2.848,0,0,1,1.38,2.387v1.789H157v-1.789a2.848,2.848,0,0,1,1.38-2.387l9.931-6.309a2.848,2.848,0,0,0,1.38-2.387V749Z" transform="translate(186.08 291.016)" fill="none" stroke="#000" stroke-linecap="round" stroke-linejoin="round" stroke-width="1.3" fill-rule="evenodd"/>
    <path id="Path_482" data-name="Path 482" d="M163.905,754.366l-3.271-2.485a.377.377,0,0,1-.085-.476.291.291,0,0,1,.249-.155h6.542a.324.324,0,0,1,.3.343.361.361,0,0,1-.134.287l-3.271,2.485A.265.265,0,0,1,163.905,754.366Z" transform="translate(185.356 290.551)" fill-rule="evenodd"/>
  </g>
</svg>
