<svg xmlns="http://www.w3.org/2000/svg" width="20.16" height="18" viewBox="0 0 20.16 18">
  <path id="Path_298" data-name="Path 298" d="M15.525,11.767h1.44v1.44h-1.44Zm4.32-6.48H2.565V3.127H18.4V1.687H2.565a1.44,1.44,0,0,0-1.44,1.44v15.12a1.44,1.44,0,0,0,1.44,1.44h17.28a1.44,1.44,0,0,0,1.44-1.44V6.727A1.44,1.44,0,0,0,19.845,5.287ZM2.565,18.247V6.727h17.28v2.16h-5.76a1.44,1.44,0,0,0-1.44,1.44v4.32a1.44,1.44,0,0,0,1.44,1.44h5.76v2.16Zm17.28-3.6v-4.32h-5.76v4.32Z" transform="translate(-1.125 -1.688)" fill-rule="evenodd"/>
</svg>
