<svg viewBox="0 0 1000 1000">
  <path id="zoom-out" d="M384 853.334h426.667q53 0 90.5-37.5t37.5-90.5v-426.667q0-53-37.5-90.5t-90.5-37.5h-426.667q-53 0-90.5 37.5t-37.5 90.5v426.667q0 53 37.5 90.5t90.5 37.5zM170.667 675.334v-547.333q0-17.667 12.5-30.167t30.167-12.5h547.333q-13.333-37.667-46.333-61.5t-74.333-23.833h-426.667q-53 0-90.5 37.5t-37.5 90.5v426.667q0 41.333 23.833 74.333t61.5 46.333zM810.667 768h-426.667q-17.667 0-30.167-12.5t-12.5-30.167v-426.667q0-17.667 12.5-30.167t30.167-12.5h426.667q17.667 0 30.167 12.5t12.5 30.167v426.667q0 17.667-12.5 30.167t-30.167 12.5z"></path>
</svg>
